# Blender 3.5.1
# www.blender.org
o Cube
v -0.250000 0.000000 16.359102
v -0.250000 6.000000 16.359102
v -0.250000 0.000000 -16.359102
v -0.250000 6.000000 -16.359102
v 0.250000 0.000000 16.359102
v 0.250000 6.000000 16.359102
v 0.250000 0.000000 -16.359102
v 0.250000 6.000000 -16.359102
vn -1.0000 -0.0000 -0.0000
vn -0.0000 -0.0000 -1.0000
vn 1.0000 -0.0000 -0.0000
vn -0.0000 -0.0000 1.0000
vn -0.0000 -1.0000 -0.0000
vn -0.0000 1.0000 -0.0000
vt 0.184286 0.004847
vt 0.193980 0.193980
vt 0.004847 0.562553
vt 0.184286 0.184286
vt 0.193980 0.373420
vt 0.562553 0.184286
vt 0.004847 0.004847
vt 0.184286 0.193980
vt 0.004847 0.383113
vt 0.004847 0.184286
vt 0.184286 0.373420
vt 0.562553 0.004847
vt 0.193980 0.004847
vt 0.373420 0.193980
vt 0.184286 0.562553
vt 0.193980 0.184286
vt 0.373420 0.373420
vt 0.383113 0.184286
vt 0.004847 0.193980
vt 0.373420 0.004847
vt 0.184286 0.383113
vt 0.004847 0.373420
vt 0.373420 0.184286
vt 0.383113 0.004847
s 0
f 1/1/1 2/4/1 4/10/1 3/7/1
f 3/8/2 4/11/2 8/22/2 7/19/2
f 7/20/3 8/23/3 6/16/3 5/13/3
f 5/14/4 6/17/4 2/5/4 1/2/4
f 3/9/5 7/21/5 5/15/5 1/3/5
f 8/24/6 4/12/6 2/6/6 6/18/6
o Cube.001
v 0.000000 0.000000 -16.250000
v 0.000000 6.000000 -16.250000
v 10.000000 0.000000 -16.250000
v 10.000000 6.000000 -16.250000
v 0.000000 0.000000 -15.750000
v 0.000000 6.000000 -15.750000
v 10.000000 0.000000 -15.750000
v 10.000000 6.000000 -15.750000
vn -0.0000 -0.0000 -1.0000
vn 1.0000 -0.0000 -0.0000
vn -0.0000 -0.0000 1.0000
vn -1.0000 -0.0000 -0.0000
vn -0.0000 -1.0000 -0.0000
vn -0.0000 1.0000 -0.0000
vt 0.562553 0.193980
vt 0.004847 0.572247
vt 0.572247 0.184286
vt 0.562553 0.373420
vt 0.004847 0.751686
vt 0.373420 0.751686
vt 0.383113 0.193980
vt 0.373420 0.383113
vt 0.572247 0.004847
vt 0.383113 0.373420
vt 0.373420 0.562553
vt 0.373420 0.572247
vt 0.383113 0.383113
vt 0.184286 0.572247
vt 0.751686 0.184286
vt 0.383113 0.562553
vt 0.184286 0.751686
vt 0.193980 0.751686
vt 0.193980 0.383113
vt 0.562553 0.383113
vt 0.751686 0.004847
vt 0.193980 0.562553
vt 0.562553 0.562553
vt 0.193980 0.572247
s 0
f 9/25/7 10/28/7 12/34/7 11/31/7
f 11/32/8 12/35/8 16/46/8 15/43/8
f 15/44/9 16/47/9 14/40/9 13/37/9
f 13/38/10 14/41/10 10/29/10 9/26/10
f 11/33/11 15/45/11 13/39/11 9/27/11
f 16/48/12 12/36/12 10/30/12 14/42/12
o Cube.003
v 0.000000 0.000000 15.750000
v 0.000000 6.000000 15.750000
v 10.000000 0.000000 15.750000
v 10.000000 6.000000 15.750000
v 0.000000 0.000000 16.250000
v 0.000000 6.000000 16.250000
v 10.000000 0.000000 16.250000
v 10.000000 6.000000 16.250000
vn -0.0000 -0.0000 -1.0000
vn 1.0000 -0.0000 -0.0000
vn -0.0000 -0.0000 1.0000
vn -1.0000 -0.0000 -0.0000
vn -0.0000 -1.0000 -0.0000
vn -0.0000 1.0000 -0.0000
vt 0.751686 0.193980
vt 0.572247 0.572247
vt 0.004847 0.940819
vt 0.751686 0.373420
vt 0.572247 0.751686
vt 0.940819 0.184286
vt 0.572247 0.193980
vt 0.562553 0.572247
vt 0.004847 0.761380
vt 0.572247 0.373420
vt 0.562553 0.751686
vt 0.940819 0.004847
vt 0.572247 0.383113
vt 0.751686 0.572247
vt 0.184286 0.940819
vt 0.572247 0.562553
vt 0.751686 0.751686
vt 0.761380 0.184286
vt 0.383113 0.572247
vt 0.751686 0.383113
vt 0.184286 0.761380
vt 0.383113 0.751686
vt 0.751686 0.562553
vt 0.761380 0.004847
s 0
f 17/49/13 18/52/13 20/58/13 19/55/13
f 19/56/14 20/59/14 24/70/14 23/67/14
f 23/68/15 24/71/15 22/64/15 21/61/15
f 21/62/16 22/65/16 18/53/16 17/50/16
f 19/57/17 23/69/17 21/63/17 17/51/17
f 24/72/18 20/60/18 18/54/18 22/66/18
o Plane
v -3.271345 6.000000 -17.222673
v 11.271345 6.000000 -17.222673
v -3.271345 6.000000 17.222673
v 11.271345 6.000000 17.222673
vn -0.0000 -1.0000 -0.0000
vt 0.940819 0.373420
vt 0.761380 0.373420
vt 0.940819 0.193980
vt 0.761380 0.193980
s 0
f 25/73/19 26/74/19 28/76/19 27/75/19
o Cube.002
v 0.000000 0.000000 -0.250000
v 0.000000 6.000000 -0.250000
v 10.000000 0.000000 -0.250000
v 10.000000 6.000000 -0.250000
v 0.000000 0.000000 0.250000
v 0.000000 6.000000 0.250000
v 10.000000 0.000000 0.250000
v 10.000000 6.000000 0.250000
v 2.500000 0.000000 -0.250000
v 2.500000 0.000000 0.250000
v 1.250000 0.000000 -0.250000
v 1.250000 0.000000 0.250000
v 2.500000 4.496324 -0.250000
v 2.500000 4.496324 0.250000
v 1.250000 4.496324 -0.250000
v 1.250000 4.496324 0.250000
vn -0.0000 -1.0000 -0.0000
vn 1.0000 -0.0000 -0.0000
vn -1.0000 -0.0000 -0.0000
vn -0.0000 1.0000 -0.0000
vn -0.0000 -0.0000 1.0000
vn -0.0000 -0.0000 -1.0000
vt 0.950513 0.383113
vt 0.193980 0.761380
vt 0.972943 0.004847
vt 0.193980 0.940819
vt 0.972943 0.184286
vt 0.761380 0.383113
vt 0.383113 0.761380
vt 0.706826 0.940819
vt 0.940819 0.562553
vt 0.383113 0.940819
vt 0.193980 0.761380
vt 0.761380 0.562553
vt 0.950513 0.562553
vt 0.373420 0.761380
vt 0.972943 0.751686
vt 0.373420 0.940819
vt 0.940819 0.572247
vt 0.972943 0.572247
vt 0.562553 0.761380
vt 0.706826 0.761380
vt 0.761380 0.751686
vt 0.562553 0.940819
vt 0.373420 0.761380
vt 0.940819 0.751686
vt 0.995153 0.940819
vt 0.572247 0.940819
vt 0.940819 0.427973
vt 0.995153 0.761380
vt 0.572247 0.761380
vt 0.761380 0.617106
vt 0.972943 0.383113
vt 0.850990 0.761380
vt 0.950513 0.004847
vt 0.972943 0.562553
vt 0.850990 0.940819
vt 0.950513 0.751686
vt 0.860683 0.940819
vt 0.972943 0.373420
vt 0.806350 0.427973
vt 0.860683 0.761380
vt 0.972943 0.193980
vt 0.895849 0.617106
vt 0.716520 0.761380
vt 0.950513 0.373420
vt 0.950513 0.139316
vt 0.806350 0.405543
vt 0.716520 0.940819
vt 0.950513 0.193980
vt 0.895849 0.594677
vt 0.950513 0.617216
s 0
f 39/107/20 40/110/20 33/89/20 29/77/20
f 39/108/21 43/119/21 44/123/21 40/111/21
f 38/104/22 42/116/22 41/113/22 37/101/22
f 44/124/20 43/120/20 41/114/20 42/117/20
f 32/86/21 36/98/21 35/95/21 31/83/21
f 31/84/20 35/96/20 38/105/20 37/102/20
f 34/92/22 30/80/22 29/78/22 33/90/22
f 32/87/23 30/80/23 34/92/23 36/99/23
f 34/93/24 44/125/24 42/118/24 36/100/24
f 33/91/24 40/112/24 44/126/24 34/94/24
f 38/106/24 35/97/24 36/100/24 42/118/24
f 32/88/25 31/85/25 37/103/25 41/115/25
f 39/109/25 29/79/25 30/81/25 43/121/25
f 41/115/25 43/122/25 30/82/25 32/88/25
